# xmcd CD database file
#
# Track frame offsets:
#	182
#	16365
#	33220
#	52235
#	67707
#	88900
#	106932
#	124157
#	143787
#	163327
#	180755
#	198377
#
# Disc length: 2891 seconds
#
# Revision: 5
# Processed by: cddbd v1.5.2PL0 Copyright (c) Steve Scherf et al.
# Submitted via: CDex 1.70beta2
#
DISCID=9e0b490c
DTITLE=Brunner and Brunner (Ich Schenke Dir Liebe) - Ich Schenke Dir Liebe
DYEAR=1997
DGENRE=Schlager
TTITLE0=Weil wir uns lieben
TTITLE1=Es haut mich um, wenn Du lachst
TTITLE2=Ich schenke Dir Liebe
TTITLE3=In Dir nur Liebe spür'n
TTITLE4=Ich vermiss' Dich
TTITLE5=Die Ewigkeit ist eine Sehnsucht
TTITLE6=Dich zu lieben heisst leben
TTITLE7=Mein Herz kann nicht lügen
TTITLE8=Gib nie Deine Träume auf
TTITLE9=Für Dich geh' ich durch jedes Feuer
TTITLE10=Manchmal weine ich nach Dir
TTITLE11=Tränen im Regen
EXTD=YEAR: 1997
EXTT0=
EXTT1=
EXTT2=
EXTT3=
EXTT4=
EXTT5=
EXTT6=
EXTT7=
EXTT8=
EXTT9=
EXTT10=
EXTT11=
PLAYORDER=
